<?xml version="1.0" encoding="utf-8"?>
<!-- Generator: Adobe Illustrator 19.0.0, SVG Export Plug-In . SVG Version: 6.00 Build 0)  -->
<svg version="1.2" baseProfile="tiny" xmlns="http://www.w3.org/2000/svg" xmlns:xlink="http://www.w3.org/1999/xlink" x="0px"
	 y="0px" viewBox="0 0 220.1 258.5" xml:space="preserve">
<g id="Layer_2">
	<path fill-rule="evenodd" fill="#E93E2E" d="M136.8,236.7c0,3.2,0,6.5,0,9.7c0,0.2,0.1,0.4,0.3,0.6c0.1,0.2,0.3,0.3,0.5,0.3
		c0.2,0,0.4,0,0.6-0.1c0.2-0.1,0.4-0.3,0.8-0.6c1.5-1.2,3.1-2.3,4.6-3.5c0.1-0.1,0.3-0.2,0.5-0.3c0.2-0.1,0.4-0.2,0.5-0.3
		c0.6-0.3,1.2-0.4,1.8-0.4c0.3,0,0.6,0,1,0c0.4,0,0.7,0.1,1.1,0.4c0.3,0.2,0.6,0.5,0.7,0.8c0.1,0.2,0.2,0.4,0.2,0.7
		c0,0.3,0.1,0.7,0.1,1c0,0.2,0,0.3,0,0.5c0,4.3,0,8.6,0,12.9c-1.4,0-2.8,0-4.2,0c0-3.9,0-7.8,0-11.7c0-0.4-0.1-0.7-0.2-0.9
		c-0.1-0.2-0.2-0.3-0.4-0.3c-0.2,0-0.4,0.1-0.8,0.4c-1.6,1.2-3.2,2.4-4.9,3.7c-0.4,0.3-0.7,0.6-1.1,0.7c-0.5,0.3-0.9,0.4-1.3,0.4
		c-0.4,0-0.9,0-1.3,0c-0.8,0-1.4-0.2-1.8-0.8c-0.6-0.7-0.8-1.6-0.8-2.7c0-3.4,0-7,0-10.4h-3c0,7.2,0,14.5,0,21.6c-1.4,0-2.8,0-4.2,0
		c0-7.2,0-14.4,0-21.6h-3.4c0,7.2,0,14.4,0,21.6c-3.9,0-7.8,0-11.8,0c-0.8,0-1.5,0-2-0.1c-0.6,0-1.1-0.2-1.7-0.4
		c-0.8-0.3-1.4-0.8-1.8-1.4c-0.5-0.7-0.7-1.6-0.7-2.7c0-3.3,0-6.7,0-10c0-1.2,0.4-2.1,1.3-2.9c0.5-0.5,0.9-0.8,1.4-1
		c0.4-0.2,0.9-0.3,1.5-0.3c3.1,0,6.3,0,9.4,0c0-0.9,0-1.9,0-2.8h-16.6c0,7.2,0,14.5,0,21.6c-1.4,0-2.8,0-4.2,0c0-7.2,0-14.4,0-21.6
		h-3.3c0,7.2,0,14.5,0,21.6c-1.4,0-2.8,0-4.2,0c0-4,0-8.1,0-12.1c-0.9,0-1.7,0-2.5,0c-0.6,0-1.2,0.3-1.6,0.9
		c-0.4,0.6-0.7,1.4-0.7,2.2c-1,0-2,0-3,0c0-0.1,0-0.3,0-0.5c0-0.5-0.1-0.9-0.3-1.5c-0.4-0.8-0.9-1.2-1.6-1.2c-0.7,0-1.3,0-2,0
		c-0.3,0-0.5,0-0.7,0.1c-0.2,0.1-0.4,0.2-0.6,0.4c-0.3,0.3-0.5,0.8-0.5,1.4c0,1.2,0,2.4,0,3.6c0,0.4,0.1,0.7,0.2,1
		c0.2,0.3,0.4,0.5,0.6,0.7c0.4,0.3,1,0.5,1.8,0.5c1,0,1.9,0,2.8,0c0,0.8,0,1.5,0,2.3c-1.4,0-2.8,0-4.1,0c-0.2,0-0.4,0-0.5,0
		c-1.2,0-2.3-0.2-3-0.6c-1.3-0.7-2-2-2-3.8c0-1.6,0-3.1,0-4.7c0-1.2,0.4-2.2,1-3c0.7-0.8,1.6-1.2,2.7-1.2c1.4,0,2.8,0,4.2,0
		c0.9,0,1.7,0.3,2.3,0.8c0.2,0.2,0.4,0.4,0.6,0.6c0.1,0.2,0.2,0.4,0.3,0.7c0.2-0.4,0.6-0.8,1-1.2c0.6-0.6,1.3-0.8,2-0.8
		c1.1,0,2.2,0,3.3,0c0-2,0-4.2,0-6.2H69c0,7.2,0,14.5,0,21.6c-1.4,0-2.8,0-4.2,0c0-7.2,0-14.4,0-21.6h-3.3c0,7.2,0,14.5,0,21.6
		c-1.4,0-2.8,0-4.2,0c0-4,0-8.1,0-12.1c-0.8,0-1.7,0-2.5,0c-0.6,0-1.1,0.3-1.6,0.9c-0.4,0.6-0.7,1.4-0.7,2.2c-1,0-2,0-3,0
		c0-0.1,0-0.3,0-0.5c0-0.5-0.1-0.9-0.4-1.5c-0.4-0.8-0.9-1.2-1.6-1.2c-0.7,0-1.3,0-2,0c-0.3,0-0.5,0-0.7,0.1
		c-0.2,0.1-0.4,0.2-0.6,0.4c-0.3,0.3-0.4,0.8-0.4,1.4c0,1.2,0,2.4,0,3.6c0,0.4,0.1,0.7,0.2,1c0.2,0.3,0.4,0.5,0.6,0.7
		c0.4,0.3,1,0.5,1.8,0.5c0.9,0,1.9,0,2.8,0c0,0.8,0,1.5,0,2.3c-1.4,0-2.7,0-4.1,0c-0.2,0-0.3,0-0.5,0c-1.2,0-2.3-0.2-3-0.6
		c-1.3-0.7-2-2-2-3.8c0-1.6,0-3.1,0-4.7c0-1.2,0.4-2.2,1-3c0.7-0.8,1.6-1.2,2.7-1.2c1.4,0,2.8,0,4.2,0c0.9,0,1.7,0.3,2.3,0.8
		c0.2,0.2,0.4,0.4,0.6,0.6c0.2,0.2,0.3,0.4,0.3,0.7c0.2-0.4,0.6-0.8,1-1.2c0.6-0.6,1.3-0.8,2-0.8c1.1,0,2.2,0,3.3,0c0-2,0-4.2,0-6.2
		H36.7c0,7.2,0,14.5,0,21.6c-1.4,0-2.8,0-4.2,0c0-7.2,0-14.4,0-21.6H18.7c0.1,0.4,0.3,0.6,0.6,1c0.2,0.2,0.4,0.5,0.6,0.6
		c0.4,0.5,0.8,0.8,1.1,1c0.3,0.3,0.7,0.4,1.2,0.6c0.5,0.2,1,0.4,1.6,0.6c0.6,0.2,1.3,0.3,2.2,0.3c0.8,0.2,1.4,0.3,1.9,0.5
		c0.5,0.2,1,0.4,1.3,0.8c0.2,0.2,0.4,0.4,0.4,0.7c0.1,0.3,0.1,0.6,0.1,1c0,0.1,0,0.3,0,0.4c0,4.5,0,9.4,0,14c-1.4,0-2.8,0-4.2,0
		c0-4.3,0-8.9,0-13.2c0-0.6-0.1-1-0.3-1.3c-0.1-0.3-0.5-0.5-1-0.7c-0.1-0.1-0.8-0.2-1.7-0.6c-1-0.3-1.8-0.7-2.3-0.9
		c-0.6-0.3-1.1-0.7-1.5-1c-0.5-0.4-1-0.8-1.5-1.2c-0.7-0.6-1.4-1.6-2.2-2.7c0,2.5,0,5.1,0,7.6c0,1.2,0.4,1.7,1.1,1.7
		c0.4,0,0.8,0,1.2,0c0.4,0,0.7,0,0.9-0.1c0.2-0.1,0.5-0.3,0.7-0.6c0.2-0.2,0.3-0.3,0.4-0.5c0.1-0.2,0.2-0.4,0.3-0.7
		c1.3,0,2.6,0,3.9,0c0,3.1,0,7.2,0,10.3c0,0.6-0.1,1.1-0.2,1.6c-0.1,0.5-0.4,1-0.7,1.3c-0.7,0.7-1.6,1-2.7,1c-3.9,0-7.7,0-11.6,0
		c-0.7,0-1.4-0.1-1.9-0.3c-0.5-0.2-1.1-0.5-1.6-1c-1.3-1.1-1.9-2.5-1.9-4.3c0-3.5,0-8.1,0-11.6c1.4,0,2.8,0,4.2,0
		c0,3.4,0,7.9,0,11.4c0,0.8,0.1,1.4,0.3,1.8c0.1,0.2,0.3,0.5,0.6,0.9c0.6,0.6,1.6,0.9,2.9,0.9c2,0,4,0,6.1,0c0.7,0,1.2-0.2,1.6-0.6
		c0.4-0.3,0.7-1,0.7-1.7c0-1.9,0-4.7,0-6.6c-0.2,0.4-0.6,0.7-1,0.7c-0.4,0.1-0.9,0.1-1.3,0.2c-1,0-2.1,0-3.2,0
		c-0.9,0-1.6-0.3-2.1-0.9c-0.4-0.6-0.7-1.4-0.7-2.3c0-2.8,0-5.6,0-8.4H0.3v-4.2h150.3v4.2H136.8z"/>
	<path fill-rule="evenodd" fill="none" stroke="#000000" stroke-width="0.25" d="M180.6,236.8"/>
	<path fill-rule="evenodd" fill="#E93E2E" d="M195.1,236.8c0,7.2,0,14.4,0,21.5c-1.4,0-2.8,0-4.2,0c0-7.2,0-14.3,0-21.5h-0.4
		c-1.1,0-2.2,0-3.3,0c-0.4,0.3-0.7,0.5-1,0.8c-0.2,0.1-0.3,0.3-0.5,0.5c-0.5,0.6-0.7,1.4-0.7,2.4c0,1.1,0,2.2,0,3.3
		c0,0.3,0.2,0.6,0.4,1c0.3,0.3,0.8,0.7,1.4,1.2c0.5,0.4,0.9,0.8,1.2,1.2c0.2,0.4,0.4,0.8,0.4,1.2c0,1.8,0,3.6,0,5.4
		c0,0.8-0.1,1.4-0.2,1.8c-0.1,0.5-0.4,0.9-0.6,1.3c-0.4,0.6-0.9,1-1.5,1.3c-0.6,0.3-1.3,0.5-2.2,0.5c-0.9,0-1.8,0-2.8,0
		c0-0.8,0-1.5,0-2.3c0.3,0,0.6,0.1,0.9,0.1c0.2,0,0.4,0,0.6,0c0.2,0,0.4,0,0.5-0.1c0.1,0,0.3-0.2,0.6-0.5c0.3-0.2,0.5-0.5,0.6-1
		c0.1-0.5,0.1-1,0.1-1.6c0-1.5,0-3,0-4.5c0-0.3-0.1-0.7-0.4-1.2c-0.3-0.4-0.8-0.8-1.3-1.3c-0.6-0.5-1-0.9-1.2-1.3
		c-0.2-0.4-0.4-0.7-0.4-1c0-0.9,0-1.9,0-2.7c0-1.2,0.5-2.3,1.5-3.4c0.2-0.2,0.3-0.3,0.6-0.5c0.2-0.1,0.4-0.3,0.6-0.5h-3.2
		c-0.8,0-1.6,0-2.4,0c0,7.2,0,14.4,0,21.6c-1.4,0-2.8,0-4.2,0c0-6,0-11.9,0-17.9c0-0.7-0.4-1.5-1.2-2.4c-0.8-0.8-1.5-1.2-2.3-1.2
		c-1.3,0-2.6,0-4,0c-0.6,0-1.1,0.1-1.4,0.4c-0.1,0.1-0.3,0.2-0.3,0.4c0,0.2-0.1,0.6-0.1,1.2c0,0.5,0.1,0.8,0.2,1.1
		c0.2,0.2,0.5,0.4,1.1,0.4c1,0,2,0,3,0c0.6,0,1.2,0.2,1.6,0.7c0.4,0.5,0.6,1.2,0.6,2.1c0,1.1,0,2.3,0,3.4c0,1.2-0.4,2.1-1.2,2.7
		c-0.6,0.4-1.5,0.7-2.4,0.7c-0.3,0-0.5,0-0.7,0c-2.1,0-4.1,0-6.2,0c0-0.8,0-1.6,0-2.5c1.6,0,3.2,0,4.7,0c0.8,0,1.3-0.2,1.6-0.6
		c0.2-0.2,0.3-0.6,0.3-1.2c0-0.5,0-1,0-1.5c0-1.1-0.5-1.7-1.6-1.7c-0.7,0-1.4,0-2.2,0c-0.2,0-0.4,0-0.6,0c-0.4,0-0.7,0-0.8-0.1
		c-0.2,0-0.4-0.1-0.6-0.3c-0.3-0.2-0.5-0.5-0.6-0.7c-0.1-0.2-0.2-0.5-0.2-0.9c0-0.7,0-1.3,0-2.1c0-1.4,0.5-4.4,1.3-5
		c0.4-0.3,0.8-0.5,1-0.6c0.2-0.1,0.6-0.1,1.3-0.1c2,0,4,0,6.1,0c0.7,0,1.4,0.2,2,0.7c0.5,0.4,1,2.9,1.5,3.4c0-0.7,0-3.4,0-4.1
		c2.2,0,4.4,0,6.6,0h39.2c0,0.7,0,3.4,0,4.1c0,0-1.4,0-2.1,0c0,7.1,0,14.4,0,21.5c-1.4,0-2.8,0-4.2,0c0-2,0-4,0-6
		c-0.7-1.2-1.8-1.8-3.3-1.8c0,1.3,0,2.5,0,3.8c0,0.6,0,1-0.1,1.4c-0.1,0.4-0.3,0.8-0.5,1c-0.6,0.7-1.5,1.1-2.7,1.1
		c-1.5,0-3.1,0-4.6,0c-1.2,0-2.2-0.3-2.9-0.8c-0.7-0.5-1.1-1.4-1.1-2.6c0-1.2,0-2.3,0-3.5c1.4,0,2.8,0,4.2,0c0,1.2,0,2.4,0,3.6
		c0,0.1,0.1,0.2,0.2,0.3c0.1,0.1,0.2,0.3,0.5,0.5c0.2,0.2,0.6,0.3,1.1,0.3c0.6,0,1-0.1,1.2-0.2c0.1-0.1,0.3-0.2,0.5-0.4
		c0.2-0.2,0.2-0.4,0.2-0.5c0-2.1,0-4.1,0-6.2c0-0.8-0.1-1.4-0.2-1.8c-0.2-0.6-0.8-0.9-1.7-0.9c-1,0-1.9,0-2.9,0
		c-0.5,0-0.9,0-1.2-0.2c-0.3-0.2-0.6-0.3-0.9-0.6c-0.5-0.5-0.8-1.2-0.8-2.1c0-1.2,0-2.3,0-3.4c0-1.1,0.8-2,2.3-2.6H195.1z
		 M213.5,249.1c0-4.1,0-8.3,0-12.3c-3.2,0-6.4,0-9.5,0c-0.3,0.2-0.7,0.4-0.9,0.6c-0.2,0.3-0.4,0.5-0.5,0.7c-0.1,0.2-0.2,0.5-0.2,0.8
		c0,0.9,0,1.8,0,2.7c0,0.3,0.1,0.5,0.2,0.7c0.1,0.2,0.2,0.4,0.3,0.6c0.3,0.2,0.7,0.4,1.4,0.4c1.1,0,2.2,0,3.3,0
		c1.7,0,2.6,0.9,2.6,2.7c0,0.6,0,1.2,0,1.8c0.6,0,1.3,0.2,1.9,0.3C212.8,248.2,213.2,248.6,213.5,249.1L213.5,249.1z"/>
	<path fill-rule="evenodd" fill="#FFFFFF" d="M117.9,256.2c0-4.8,0-9.6,0-14.4c-2.4,0-4.7,0-7.1,0c-1.6,0-2.4,0.7-2.4,2.2
		c0,3.1,0,6.2,0,9.3c0,0.4,0.1,0.7,0.2,1c0.1,0.3,0.3,0.7,0.6,1.1c0.3,0.3,0.6,0.4,0.8,0.5c0.3,0.1,0.7,0.2,1.2,0.2
		C113.4,256.2,115.7,256.2,117.9,256.2L117.9,256.2z"/>
</g>
<g id="Layer_3">
	<path fill="#E93E2E" d="M111.6,200.9H99.9l46.7-52.6c0,0,8-11.5,0-25l-34.5-36.6c0,0-11.8-11-2.4-20.5l23.1-24l54.7,57.5
		c0,0,10.4,9.5-1.4,21C174.3,132.3,111.6,200.9,111.6,200.9z"/>
	<path fill="#E93E2E" d="M107.4,18.2h11.7L72.1,68.8c0,0-8,11.5,0,25l33.4,35.5c0,0,11.8,11,2.4,20.5l-23,24l-53.7-56.5
		c0,0-10.4-9.5,1.4-21C44.3,84.8,107.4,18.2,107.4,18.2z"/>
</g>
<g id="Layer_1">
	<path d="M161.1,6.5c-8.2,0-16.3,0-24.5,0c-7.3,0-32.7,0-32.7,0L22.6,93c0,0-5.6,6.1-5.6,15c0,9,4.9,14.4,4.9,14.4
		s59.1,63,63.1,67.2c3.8-4.1,38.2-40.3,38.2-40.3s3.8-3.7,3.3-8.3c-0.4-3.6-6.7-11.4-6.7-11.4L83.7,91.7c0,0-5-4.4-5-12
		c0-7.5,8.2-14.8,8.2-14.8L131.4,19c0,0,56.7,59.9,70.5,74c15.6,15.9-0.1,32.7-0.1,32.7l-87.6,94.1H32c-6.6,0-31.9-1.7-31.9-34.7
		c0-0.2,0-148,0-148C0.3,36.7-4.7,0,36.1,0H85v6.2H36.1C4.9,6.2,6,34.6,6,34.6S6,185,6,185.2c0,30,25.4,28,26.6,28.3
		c0.6,0,79,0,79,0l85-91.2c0,0,5-6,5.2-12.7c0.3-8-5.7-13.7-5.7-13.7l-63.8-65.7L95.7,71.9c0,0-2.9,4.2-1.5,8.5
		c1.3,4.3,5.2,8.3,5.2,8.3l33.9,36.6c0,0,6.2,5.8,6.9,12c0.7,6.4-3.5,11.2-3.5,11.2l-49.5,53.6l-69.7-75.2l-0.1-0.1
		c-13.1-17.5-1.7-35.2,0.5-37.5c2.2-2.3,84-89.1,84-89.1s83.6,0,87.1,0c6.3,0,11.8,1.6,17.4,4.6c5.4,2.9,9.4,8.5,11.6,14.3
		c1.6,4.3,2.2,9.4,2.2,14v156.2c0,0.6-0.2,30.5-33,30.5h-54.3l0-6.5h54.3c25.4,0,27-22.9,27-24.1V38.2V33c0-11.7-5.3-21.7-16.7-25.2
		c-3.2-1-7.1-1-10.4-1.3"/>
</g>
</svg>
